<svg xmlns="http://www.w3.org/2000/svg" xmlns:xlink="http://www.w3.org/1999/xlink" contentStyleType="text/css" data-diagram-type="CLASS" height="170px" preserveAspectRatio="none" style="width:606px;height:170px;background:#FFFFFF;" version="1.1" viewBox="0 0 606 170" width="606px" zoomAndPan="magnify"><defs/><g><!--class Class01--><g class="entity" data-entity="Class01" data-source-line="1" data-uid="ent0002" id="entity_Class01"><rect fill="#F1F1F1" height="48" rx="2.5" ry="2.5" style="stroke:#181818;stroke-width:0.5;" width="86.6465" x="7" y="7"/><ellipse cx="22" cy="23" fill="#ADD1B2" rx="11" ry="11" style="stroke:#181818;stroke-width:1;"/><path d="M24.9688,28.6406 Q24.3906,28.9375 23.75,29.0781 Q23.1094,29.2344 22.4063,29.2344 Q19.9063,29.2344 18.5781,27.5938 Q17.2656,25.9375 17.2656,22.8125 Q17.2656,19.6875 18.5781,18.0313 Q19.9063,16.375 22.4063,16.375 Q23.1094,16.375 23.75,16.5313 Q24.4063,16.6875 24.9688,16.9844 L24.9688,19.7031 Q24.3438,19.125 23.75,18.8594 Q23.1563,18.5781 22.5313,18.5781 Q21.1875,18.5781 20.5,19.6563 Q19.8125,20.7188 19.8125,22.8125 Q19.8125,24.9063 20.5,25.9844 Q21.1875,27.0469 22.5313,27.0469 Q23.1563,27.0469 23.75,26.7813 Q24.3438,26.5 24.9688,25.9219 L24.9688,28.6406 Z " fill="#000000"/><text fill="#000000" font-family="sans-serif" font-size="14" lengthAdjust="spacing" textLength="54.6465" x="36" y="27.8467">Class01</text><line style="stroke:#181818;stroke-width:0.5;" x1="8" x2="92.6465" y1="39" y2="39"/><line style="stroke:#181818;stroke-width:0.5;" x1="8" x2="92.6465" y1="47" y2="47"/></g><!--class Class02--><g class="entity" data-entity="Class02" data-source-line="1" data-uid="ent0003" id="entity_Class02"><rect fill="#F1F1F1" height="48" rx="2.5" ry="2.5" style="stroke:#181818;stroke-width:0.5;" width="86.6465" x="7" y="115"/><ellipse cx="22" cy="131" fill="#ADD1B2" rx="11" ry="11" style="stroke:#181818;stroke-width:1;"/><path d="M24.9688,136.6406 Q24.3906,136.9375 23.75,137.0781 Q23.1094,137.2344 22.4063,137.2344 Q19.9063,137.2344 18.5781,135.5938 Q17.2656,133.9375 17.2656,130.8125 Q17.2656,127.6875 18.5781,126.0313 Q19.9063,124.375 22.4063,124.375 Q23.1094,124.375 23.75,124.5313 Q24.4063,124.6875 24.9688,124.9844 L24.9688,127.7031 Q24.3438,127.125 23.75,126.8594 Q23.1563,126.5781 22.5313,126.5781 Q21.1875,126.5781 20.5,127.6563 Q19.8125,128.7188 19.8125,130.8125 Q19.8125,132.9063 20.5,133.9844 Q21.1875,135.0469 22.5313,135.0469 Q23.1563,135.0469 23.75,134.7813 Q24.3438,134.5 24.9688,133.9219 L24.9688,136.6406 Z " fill="#000000"/><text fill="#000000" font-family="sans-serif" font-size="14" lengthAdjust="spacing" textLength="54.6465" x="36" y="135.8467">Class02</text><line style="stroke:#181818;stroke-width:0.5;" x1="8" x2="92.6465" y1="147" y2="147"/><line style="stroke:#181818;stroke-width:0.5;" x1="8" x2="92.6465" y1="155" y2="155"/></g><!--class Class03--><g class="entity" data-entity="Class03" data-source-line="2" data-uid="ent0005" id="entity_Class03"><rect fill="#F1F1F1" height="48" rx="2.5" ry="2.5" style="stroke:#181818;stroke-width:0.5;" width="86.6465" x="129" y="7"/><ellipse cx="144" cy="23" fill="#ADD1B2" rx="11" ry="11" style="stroke:#181818;stroke-width:1;"/><path d="M146.9688,28.6406 Q146.3906,28.9375 145.75,29.0781 Q145.1094,29.2344 144.4063,29.2344 Q141.9063,29.2344 140.5781,27.5938 Q139.2656,25.9375 139.2656,22.8125 Q139.2656,19.6875 140.5781,18.0313 Q141.9063,16.375 144.4063,16.375 Q145.1094,16.375 145.75,16.5313 Q146.4063,16.6875 146.9688,16.9844 L146.9688,19.7031 Q146.3438,19.125 145.75,18.8594 Q145.1563,18.5781 144.5313,18.5781 Q143.1875,18.5781 142.5,19.6563 Q141.8125,20.7188 141.8125,22.8125 Q141.8125,24.9063 142.5,25.9844 Q143.1875,27.0469 144.5313,27.0469 Q145.1563,27.0469 145.75,26.7813 Q146.3438,26.5 146.9688,25.9219 L146.9688,28.6406 Z " fill="#000000"/><text fill="#000000" font-family="sans-serif" font-size="14" lengthAdjust="spacing" textLength="54.6465" x="158" y="27.8467">Class03</text><line style="stroke:#181818;stroke-width:0.5;" x1="130" x2="214.6465" y1="39" y2="39"/><line style="stroke:#181818;stroke-width:0.5;" x1="130" x2="214.6465" y1="47" y2="47"/></g><!--class Class05--><g class="entity" data-entity="Class05" data-source-line="3" data-uid="ent0007" id="entity_Class05"><rect fill="#F1F1F1" height="48" rx="2.5" ry="2.5" style="stroke:#181818;stroke-width:0.5;" width="86.6465" x="269" y="7"/><ellipse cx="284" cy="23" fill="#ADD1B2" rx="11" ry="11" style="stroke:#181818;stroke-width:1;"/><path d="M286.9688,28.6406 Q286.3906,28.9375 285.75,29.0781 Q285.1094,29.2344 284.4063,29.2344 Q281.9063,29.2344 280.5781,27.5938 Q279.2656,25.9375 279.2656,22.8125 Q279.2656,19.6875 280.5781,18.0313 Q281.9063,16.375 284.4063,16.375 Q285.1094,16.375 285.75,16.5313 Q286.4063,16.6875 286.9688,16.9844 L286.9688,19.7031 Q286.3438,19.125 285.75,18.8594 Q285.1563,18.5781 284.5313,18.5781 Q283.1875,18.5781 282.5,19.6563 Q281.8125,20.7188 281.8125,22.8125 Q281.8125,24.9063 282.5,25.9844 Q283.1875,27.0469 284.5313,27.0469 Q285.1563,27.0469 285.75,26.7813 Q286.3438,26.5 286.9688,25.9219 L286.9688,28.6406 Z " fill="#000000"/><text fill="#000000" font-family="sans-serif" font-size="14" lengthAdjust="spacing" textLength="54.6465" x="298" y="27.8467">Class05</text><line style="stroke:#181818;stroke-width:0.5;" x1="270" x2="354.6465" y1="39" y2="39"/><line style="stroke:#181818;stroke-width:0.5;" x1="270" x2="354.6465" y1="47" y2="47"/></g><!--class Class06--><g class="entity" data-entity="Class06" data-source-line="3" data-uid="ent0008" id="entity_Class06"><rect fill="#F1F1F1" height="48" rx="2.5" ry="2.5" style="stroke:#181818;stroke-width:0.5;" width="86.6465" x="269" y="115"/><ellipse cx="284" cy="131" fill="#ADD1B2" rx="11" ry="11" style="stroke:#181818;stroke-width:1;"/><path d="M286.9688,136.6406 Q286.3906,136.9375 285.75,137.0781 Q285.1094,137.2344 284.4063,137.2344 Q281.9063,137.2344 280.5781,135.5938 Q279.2656,133.9375 279.2656,130.8125 Q279.2656,127.6875 280.5781,126.0313 Q281.9063,124.375 284.4063,124.375 Q285.1094,124.375 285.75,124.5313 Q286.4063,124.6875 286.9688,124.9844 L286.9688,127.7031 Q286.3438,127.125 285.75,126.8594 Q285.1563,126.5781 284.5313,126.5781 Q283.1875,126.5781 282.5,127.6563 Q281.8125,128.7188 281.8125,130.8125 Q281.8125,132.9063 282.5,133.9844 Q283.1875,135.0469 284.5313,135.0469 Q285.1563,135.0469 285.75,134.7813 Q286.3438,134.5 286.9688,133.9219 L286.9688,136.6406 Z " fill="#000000"/><text fill="#000000" font-family="sans-serif" font-size="14" lengthAdjust="spacing" textLength="54.6465" x="298" y="135.8467">Class06</text><line style="stroke:#181818;stroke-width:0.5;" x1="270" x2="354.6465" y1="147" y2="147"/><line style="stroke:#181818;stroke-width:0.5;" x1="270" x2="354.6465" y1="155" y2="155"/></g><!--class Class07--><g class="entity" data-entity="Class07" data-source-line="4" data-uid="ent0010" id="entity_Class07"><rect fill="#F1F1F1" height="48" rx="2.5" ry="2.5" style="stroke:#181818;stroke-width:0.5;" width="86.6465" x="391" y="7"/><ellipse cx="406" cy="23" fill="#ADD1B2" rx="11" ry="11" style="stroke:#181818;stroke-width:1;"/><path d="M408.9688,28.6406 Q408.3906,28.9375 407.75,29.0781 Q407.1094,29.2344 406.4063,29.2344 Q403.9063,29.2344 402.5781,27.5938 Q401.2656,25.9375 401.2656,22.8125 Q401.2656,19.6875 402.5781,18.0313 Q403.9063,16.375 406.4063,16.375 Q407.1094,16.375 407.75,16.5313 Q408.4063,16.6875 408.9688,16.9844 L408.9688,19.7031 Q408.3438,19.125 407.75,18.8594 Q407.1563,18.5781 406.5313,18.5781 Q405.1875,18.5781 404.5,19.6563 Q403.8125,20.7188 403.8125,22.8125 Q403.8125,24.9063 404.5,25.9844 Q405.1875,27.0469 406.5313,27.0469 Q407.1563,27.0469 407.75,26.7813 Q408.3438,26.5 408.9688,25.9219 L408.9688,28.6406 Z " fill="#000000"/><text fill="#000000" font-family="sans-serif" font-size="14" lengthAdjust="spacing" textLength="54.6465" x="420" y="27.8467">Class07</text><line style="stroke:#181818;stroke-width:0.5;" x1="392" x2="476.6465" y1="39" y2="39"/><line style="stroke:#181818;stroke-width:0.5;" x1="392" x2="476.6465" y1="47" y2="47"/></g><!--class Class08--><g class="entity" data-entity="Class08" data-source-line="4" data-uid="ent0011" id="entity_Class08"><rect fill="#F1F1F1" height="48" rx="2.5" ry="2.5" style="stroke:#181818;stroke-width:0.5;" width="86.6465" x="391" y="115"/><ellipse cx="406" cy="131" fill="#ADD1B2" rx="11" ry="11" style="stroke:#181818;stroke-width:1;"/><path d="M408.9688,136.6406 Q408.3906,136.9375 407.75,137.0781 Q407.1094,137.2344 406.4063,137.2344 Q403.9063,137.2344 402.5781,135.5938 Q401.2656,133.9375 401.2656,130.8125 Q401.2656,127.6875 402.5781,126.0313 Q403.9063,124.375 406.4063,124.375 Q407.1094,124.375 407.75,124.5313 Q408.4063,124.6875 408.9688,124.9844 L408.9688,127.7031 Q408.3438,127.125 407.75,126.8594 Q407.1563,126.5781 406.5313,126.5781 Q405.1875,126.5781 404.5,127.6563 Q403.8125,128.7188 403.8125,130.8125 Q403.8125,132.9063 404.5,133.9844 Q405.1875,135.0469 406.5313,135.0469 Q407.1563,135.0469 407.75,134.7813 Q408.3438,134.5 408.9688,133.9219 L408.9688,136.6406 Z " fill="#000000"/><text fill="#000000" font-family="sans-serif" font-size="14" lengthAdjust="spacing" textLength="54.6465" x="420" y="135.8467">Class08</text><line style="stroke:#181818;stroke-width:0.5;" x1="392" x2="476.6465" y1="147" y2="147"/><line style="stroke:#181818;stroke-width:0.5;" x1="392" x2="476.6465" y1="155" y2="155"/></g><!--class Class09--><g class="entity" data-entity="Class09" data-source-line="5" data-uid="ent0013" id="entity_Class09"><rect fill="#F1F1F1" height="48" rx="2.5" ry="2.5" style="stroke:#181818;stroke-width:0.5;" width="86.6465" x="513" y="7"/><ellipse cx="528" cy="23" fill="#ADD1B2" rx="11" ry="11" style="stroke:#181818;stroke-width:1;"/><path d="M530.9688,28.6406 Q530.3906,28.9375 529.75,29.0781 Q529.1094,29.2344 528.4063,29.2344 Q525.9063,29.2344 524.5781,27.5938 Q523.2656,25.9375 523.2656,22.8125 Q523.2656,19.6875 524.5781,18.0313 Q525.9063,16.375 528.4063,16.375 Q529.1094,16.375 529.75,16.5313 Q530.4063,16.6875 530.9688,16.9844 L530.9688,19.7031 Q530.3438,19.125 529.75,18.8594 Q529.1563,18.5781 528.5313,18.5781 Q527.1875,18.5781 526.5,19.6563 Q525.8125,20.7188 525.8125,22.8125 Q525.8125,24.9063 526.5,25.9844 Q527.1875,27.0469 528.5313,27.0469 Q529.1563,27.0469 529.75,26.7813 Q530.3438,26.5 530.9688,25.9219 L530.9688,28.6406 Z " fill="#000000"/><text fill="#000000" font-family="sans-serif" font-size="14" lengthAdjust="spacing" textLength="54.6465" x="542" y="27.8467">Class09</text><line style="stroke:#181818;stroke-width:0.5;" x1="514" x2="598.6465" y1="39" y2="39"/><line style="stroke:#181818;stroke-width:0.5;" x1="514" x2="598.6465" y1="47" y2="47"/></g><!--class Class10--><g class="entity" data-entity="Class10" data-source-line="5" data-uid="ent0014" id="entity_Class10"><rect fill="#F1F1F1" height="48" rx="2.5" ry="2.5" style="stroke:#181818;stroke-width:0.5;" width="86.6465" x="513" y="115"/><ellipse cx="528" cy="131" fill="#ADD1B2" rx="11" ry="11" style="stroke:#181818;stroke-width:1;"/><path d="M530.9688,136.6406 Q530.3906,136.9375 529.75,137.0781 Q529.1094,137.2344 528.4063,137.2344 Q525.9063,137.2344 524.5781,135.5938 Q523.2656,133.9375 523.2656,130.8125 Q523.2656,127.6875 524.5781,126.0313 Q525.9063,124.375 528.4063,124.375 Q529.1094,124.375 529.75,124.5313 Q530.4063,124.6875 530.9688,124.9844 L530.9688,127.7031 Q530.3438,127.125 529.75,126.8594 Q529.1563,126.5781 528.5313,126.5781 Q527.1875,126.5781 526.5,127.6563 Q525.8125,128.7188 525.8125,130.8125 Q525.8125,132.9063 526.5,133.9844 Q527.1875,135.0469 528.5313,135.0469 Q529.1563,135.0469 529.75,134.7813 Q530.3438,134.5 530.9688,133.9219 L530.9688,136.6406 Z " fill="#000000"/><text fill="#000000" font-family="sans-serif" font-size="14" lengthAdjust="spacing" textLength="54.6465" x="542" y="135.8467">Class10</text><line style="stroke:#181818;stroke-width:0.5;" x1="514" x2="598.6465" y1="147" y2="147"/><line style="stroke:#181818;stroke-width:0.5;" x1="514" x2="598.6465" y1="155" y2="155"/></g><!--reverse link Class01 to Class02--><g class="link" data-entity-1="Class01" data-entity-2="Class02" data-source-line="1" data-uid="lnk4" id="link_Class01_Class02"><path codeLine="1" d="M50.32,73.26 C50.32,90.94 50.32,97.13 50.32,114.79" fill="none" id="Class01-backto-Class02" style="stroke:#181818;stroke-width:1;"/><polygon fill="none" points="50.32,55.26,44.32,73.26,56.32,73.26,50.32,55.26" style="stroke:#181818;stroke-width:1;"/></g><!--reverse link Class03 to Class03--><g class="link" data-entity-1="Class03" data-entity-2="Class03" data-source-line="2" data-uid="lnk6" id="link_Class03_Class03"><path codeLine="2" d="M227.7744,9.9449 C246.5344,8.3049 250.65,16.02 250.65,31 C250.65,45.98 234.58,52.65 215.82,51.01" fill="none" id="Class03-backto-Class03" style="stroke:#181818;stroke-width:1;"/><polygon fill="#181818" points="215.82,10.99,222.1456,14.4523,227.7744,9.9449,221.4489,6.4827,215.82,10.99" style="stroke:#181818;stroke-width:1;"/></g><!--reverse link Class05 to Class06--><g class="link" data-entity-1="Class05" data-entity-2="Class06" data-source-line="3" data-uid="lnk9" id="link_Class05_Class06"><path codeLine="3" d="M312.32,67.26 C312.32,84.94 312.32,97.13 312.32,114.79" fill="none" id="Class05-backto-Class06" style="stroke:#181818;stroke-width:1;"/><polygon fill="none" points="312.32,55.26,308.32,61.26,312.32,67.26,316.32,61.26,312.32,55.26" style="stroke:#181818;stroke-width:1;"/></g><!--link Class07 to Class08--><g class="link" data-entity-1="Class07" data-entity-2="Class08" data-source-line="4" data-uid="lnk12" id="link_Class07_Class08"><path codeLine="4" d="M434.32,55.26 C434.32,72.94 434.32,97.13 434.32,114.79" fill="none" id="Class07-Class08" style="stroke:#181818;stroke-width:1;stroke-dasharray:7.0,7.0;"/></g><!--link Class09 to Class10--><g class="link" data-entity-1="Class09" data-entity-2="Class10" data-source-line="5" data-uid="lnk15" id="link_Class09_Class10"><path codeLine="5" d="M556.32,55.26 C556.32,72.94 556.32,97.13 556.32,114.79" fill="none" id="Class09-Class10" style="stroke:#181818;stroke-width:1;"/></g><!--SRC=[Syv9B2usC5ImgT7LLN06SuouE24COmKjkA0nJD1K8HykQ0OJD5VGquEAMS34B1LWwWmD0000]--></g></svg>